# xmcd
#
# Track frame offsets: 
#        150
#        11592
#        28140
#        42677
#        58202
#        71222
#        86787
#        103422
#        119070
#
# Disc length: 1888 seconds
#
# Revision: 2
# Processed by: cddbd v1.4PL0 Copyright (c) Steve Scherf et al.
# Submitted via: ExactAudioCopy v0.90b3
#
DISCID=8f075e09
DTITLE=Eddie Rabbitt - Classics Collection
DYEAR=1900
DGENRE=Country
TTITLE0=B-B-B-Burnin' Up With Love
TTITLE1=Step By Step
TTITLE2=The Best Year Of My Life
TTITLE3=Years After You
TTITLE4=Warning Sign
TTITLE5=Someone Could Lose A Heart Tonight
TTITLE6=You Can't Run From Love
TTITLE7=Our Love Will Survive
TTITLE8=Nobody Loves Me Like My Baby
EXTD=
EXTT0=
EXTT1=
EXTT2=
EXTT3=
EXTT4=
EXTT5=
EXTT6=
EXTT7=
EXTT8=
PLAYORDER=
